<?xml version="1.0" standalone="no"?><!DOCTYPE svg PUBLIC "-//W3C//DTD SVG 1.1//EN" "http://www.w3.org/Graphics/SVG/1.1/DTD/svg11.dtd"><svg t="1756776592399" class="icon" viewBox="0 0 1024 1024" version="1.1" xmlns="http://www.w3.org/2000/svg" p-id="2619" xmlns:xlink="http://www.w3.org/1999/xlink" width="200" height="200"><path d="M504.970666 0C363.488 0 248.416 115.093333 248.416 256.533333l0 180.394667 104.32 0 0-180.394667c0-83.925333 68.288-152.213333 152.234667-152.213333s152.213333 68.288 152.213333 152.213333l0 180.394667 104.341333 0 0-180.394667C761.525333 115.093333 646.432 0 504.970666 0z" fill="#ffffff" p-id="2620"></path><path d="M810.869333 467.328 213.109333 467.328C167.712 467.328 130.890666 504.149333 130.890666 549.568l0 391.808c0 45.418667 36.821333 82.218667 82.218667 82.218667l597.76 0c45.418667 0 82.24-36.821333 82.24-82.218667L893.109333 549.568C893.109333 504.149333 856.288 467.328 810.869333 467.328zM677.770666 781.546667l-81.514667 0c-14.016 32.682667-46.442667 55.573333-84.245333 55.573333-37.802667 0-70.250667-22.890667-84.266667-55.573333l-81.493333 0 0-72.170667 81.493333 0c14.016-32.661333 46.464-55.552 84.266667-55.552 37.802667 0 70.229333 22.890667 84.245333 55.552l81.514667 0L677.770666 781.546667z" fill="#ffffff" p-id="2621"></path></svg>